# xmcd
#
# Track frame offsets: 
#        187
#        20737
#        40357
#        57060
#        68180
#        82207
#        98377
#        116225
#        131110
#        149717
#
# Disc length: 2205 seconds
#
# Revision: 6
# Processed by: cddbd v1.5.2PL0 Copyright (c) Steve Scherf et al.
# Submitted via: ExactAudioCopy v1.0b1
#
DISCID=96089b0a
DTITLE=Waylon Jennings - Hangin' Tough
DYEAR=1987
DGENRE=Country
TTITLE0=Baker Street
TTITLE1=I Can't Help The Way I Don't Feel About You
TTITLE2=Rose In Paradise
TTITLE3=Crying Don't Even Come Close
TTITLE4=Chevy Van
TTITLE5=Fallin' Out
TTITLE6=Deep In The West
TTITLE7=Between Fathers And Sons
TTITLE8=The Crown Prince
TTITLE9=Defying Gravity (Executioner's Song)
EXTD=(c)1987 MCA Records\nKatalog: MCA-5911\nupc 022925457021\n\nMusic
EXTD=ians: \nDrums: Matt Betton - \nElectric Guitar: Billy Joe Walker, 
EXTD=Jr., Larry Byrom, Reggie Young, Gary Scruggs;\nAccoustic Guitar: 
EXTD=Gary Scruggs, Richard Bennett, Billy Joe Walker, Jr.\nPiano: John
EXTD=Jarvis;\nBass Jerry Bridges;\nSynthesizer: John Jarvis,\nSteel: 
EXTD=Ralph Mooney;\nSynclavier: Steve Schaffer;\nMandola and Mandolin:
EXTD=Mark O'Connor;\nBackground Vocals: Waylon Jennings, Curtis 'Mr. 
EXTD=Harmony' Young. \n\nProduced by Jimmy Bowen for Lynwood Productio
EXTD=ns and Waylon Jennings for WGJ Productions, Inc. \nProduction Ass
EXTD=istant: Chip Hardy\nRecorded by Ron Treat - Mastered by Glenn Mead
EXTD=ows at Masterfonics.\nMixed and Mastered using the JVC DigitalAud
EXTD=io Mastering System.\n
EXTT0=
EXTT1=
EXTT2=
EXTT3=
EXTT4=
EXTT5=
EXTT6=
EXTT7=
EXTT8=
EXTT9=
PLAYORDER=
